<?xml version="1.0" standalone="no"?>
<!DOCTYPE svg PUBLIC "-//W3C//DTD SVG 20010904//EN"
 "http://www.w3.org/TR/2001/REC-SVG-20010904/DTD/svg10.dtd">
<svg version="1.0" xmlns="http://www.w3.org/2000/svg"
 width="1280.000000pt" height="1262.000000pt" viewBox="0 0 1280.000000 1262.000000"
 preserveAspectRatio="xMidYMid meet">
<metadata>
Created by potrace 1.15, written by Peter Selinger 2001-2017
</metadata>
<g transform="translate(0.000000,1262.000000) scale(0.100000,-0.100000)"
fill="#000000" stroke="none">
<path d="M1370 12606 c-393 -51 -728 -216 -975 -478 -191 -203 -308 -433 -367
-717 -29 -138 -31 -414 -5 -566 47 -274 175 -607 293 -762 102 -133 295 -304
554 -490 311 -223 560 -379 1565 -983 418 -251 857 -517 975 -591 492 -306
980 -646 1240 -863 269 -224 328 -303 539 -721 l101 -200 -98 -95 c-443 -430
-1100 -1013 -1484 -1317 l-126 -100 -124 -6 c-451 -23 -865 -158 -1240 -405
-182 -120 -398 -318 -533 -487 -201 -251 -365 -581 -445 -895 -49 -189 -61
-288 -67 -525 -5 -202 -3 -248 16 -380 49 -341 166 -663 345 -953 61 -98 77
-112 126 -112 54 0 76 37 160 270 80 222 395 1081 457 1250 70 189 169 308
316 380 120 59 189 73 322 68 l110 -5 591 -215 c325 -119 618 -230 652 -247
229 -116 372 -389 333 -639 -13 -86 -18 -101 -339 -979 -143 -392 -263 -725
-266 -740 -4 -19 0 -39 13 -60 31 -50 63 -50 236 -3 340 93 561 210 830 436
285 239 487 495 641 809 112 230 181 452 221 710 25 157 24 507 -1 670 -30
200 -113 493 -171 605 -16 31 -16 32 19 74 255 311 1376 1521 1409 1521 18 0
3079 -2748 3100 -2783 26 -45 21 -130 -14 -262 -56 -213 -51 -299 28 -435 129
-223 298 -364 758 -630 449 -260 533 -310 659 -392 70 -46 132 -83 136 -81 4
2 215 218 469 481 l463 478 -18 27 c-9 15 -50 70 -89 122 -40 52 -177 253
-306 445 -389 581 -544 758 -751 859 -109 53 -173 66 -383 76 -208 11 -269 20
-361 57 -59 23 -100 64 -1210 1200 -632 647 -1260 1290 -1397 1429 l-247 252
122 119 c698 679 1475 1335 1915 1619 l87 57 135 -7 c399 -20 797 63 1166 244
492 240 864 610 1101 1095 112 230 180 447 220 707 25 156 25 498 1 658 -22
143 -68 331 -113 464 -68 198 -260 557 -313 585 -33 18 -77 13 -102 -13 -14
-14 -62 -132 -124 -302 -56 -154 -175 -479 -264 -724 -90 -245 -174 -474 -188
-510 -79 -199 -241 -345 -438 -395 -82 -21 -225 -19 -311 4 -107 28 -1172 419
-1239 455 -72 37 -181 138 -225 207 -18 27 -46 84 -62 126 -36 93 -48 234 -29
335 7 35 71 223 143 418 363 993 458 1260 458 1282 0 35 -34 75 -70 83 -31 7
-120 -15 -275 -67 -841 -285 -1453 -1014 -1592 -1898 -22 -141 -25 -516 -5
-655 12 -82 57 -300 68 -329 10 -26 -335 -457 -665 -831 -148 -167 -507 -557
-647 -704 l-109 -114 -215 106 c-118 58 -256 133 -307 166 -236 157 -544 486
-917 981 -267 354 -431 588 -1011 1440 -743 1091 -1002 1446 -1277 1750 -160
177 -257 256 -406 330 -196 97 -403 163 -642 206 -122 21 -401 26 -530 10z"/>
</g>
</svg>
